<svg width="3em" height="1em" viewBox="0 0 80 30" fill="currentColor" xmlns="http://www.w3.org/2000/svg"><path d="M47.7883.05664c-5.5135 0-9.9914 4.47795-9.9914 9.99146 0 5.5134 4.4779 9.9914 9.9914 9.9914 5.5135 0 9.9914-4.478 9.9914-9.9914 0-5.51351-4.4779-9.977466-9.9914-9.99146Zm0 16.23256c-3.4424 0-6.2411-2.7987-6.2411-6.2411 0-3.44246 2.7987-6.24118 6.2411-6.24118s6.2411 2.79872 6.2411 6.24118c0 3.4424-2.7987 6.2411-6.2411 6.2411ZM10.0759.000524C4.56244-.05545.056498 4.38052.000524 9.894-.05545 15.4075 4.38052 19.9274 9.894 19.9694h3.4704v-3.7363h-3.2885c-3.44241.042-6.26912-2.7148-6.3111-6.1712-.04198-3.44241 2.71476-6.26911 6.17118-6.31109h.13992c3.4424 0 6.2552 2.79872 6.2552 6.24114v9.19375c0 3.4145-2.7848 6.1992-6.1992 6.2412-1.63726 0-3.19055-.6717-4.33803-1.8332l-2.64479 2.6448c1.83316 1.8472 4.32402 2.8967 6.92682 2.9247h.1399c5.4436-.084 9.8236-4.492 9.8515-9.9355V9.74007C19.9274 4.32454 15.5054.000524 10.0899.000524h-.014ZM79.9987 28.744V9.79671c-.14-5.41552-4.562-9.739545-9.9775-9.739545C64.5077.00119 59.9878 4.43716 59.9458 9.95064c-.0559 5.51346 4.38 10.03336 9.8935 10.07536h3.4704v-3.7363h-3.2885c-3.4424.042-6.2691-2.7147-6.3111-6.1711-.042-3.44247 2.7148-6.26917 6.1712-6.31115h.1399c3.4425 0 6.2552 2.79872 6.2552 6.24115V28.716l3.7223.042v-.014ZM22.9202 20.0255h3.7223v-9.9914c0-3.44245 2.7988-6.24117 6.2412-6.24117 1.1335 0 2.197.30786 3.1206.83962l1.8751-3.24652C36.4101.532423 34.7029.05664 32.8977.05664c-5.5135 0-9.9915 4.47795-9.9915 9.99146v9.9914l.014-.014Z"></path></svg>