<svg width="100" height="100" xmlns="http://www.w3.org/2000/svg">

 <g>
  <title>Layer 1</title>
  <path stroke="null" transform="rotate(13.9334 29.5707 72.0682)" fill="#eeeeee" d="m27.92358,60.43697l3.41915,0a0.82389,0.82389 0 0 0 0,-1.64778l-3.41915,0a0.82389,0.82389 0 0 0 0,1.64778zm21.586,13.05582l-3.02616,-12.30853a3.2795,3.2795 0 0 0 -2.22123,-2.269a0.82389,0.82389 0 0 0 -0.47578,1.57817a1.65891,1.65891 0 0 1 1.09661,1.08505l3.02698,12.3073a0.8931,0.8931 0 0 1 0.02719,0.21217a0.92358,0.92358 0 0 1 -0.04119,0.21009a0.4379,0.4379 0 0 1 -0.1306,0.19197a0.18373,0.18373 0 0 1 -0.02308,0.0169a0.30649,0.30649 0 0 1 -0.04118,0.02677a0.97878,0.97878 0 0 1 -0.37076,0.08898l-0.00493,0l0,0l-35.49743,0c-0.03047,-0.00206 -0.05602,-0.00661 -0.08237,-0.0099a1.1069,1.1069 0 0 1 -0.20597,-0.04118c-0.00661,-0.00206 -0.01031,-0.00495 -0.01689,-0.00702a0.56849,0.56849 0 0 1 -0.08239,-0.03542a0.35716,0.35716 0 0 1 -0.04737,-0.03294a0.33656,0.33656 0 0 1 -0.0276,-0.0202a0.38311,0.38311 0 0 1 -0.04984,-0.05685l-0.00742,-0.00865a0.4828,0.4828 0 0 1 -0.03749,-0.07128l-0.00496,-0.00988a0.56601,0.56601 0 0 1 -0.02182,-0.06756c-0.00412,-0.01441 -0.00782,-0.02841 -0.01111,-0.04368c-0.00249,-0.00822 -0.00412,-0.01769 -0.00578,-0.02594c-0.00536,-0.03337 -0.01028,-0.06796 -0.01441,-0.10545a0.91864,0.91864 0 0 1 0.02801,-0.21133l3.02696,-12.30813a1.63625,1.63625 0 0 1 0.91494,-1.01669a0.82389,0.82389 0 0 0 -0.67022,-1.50565a3.25644,3.25644 0 0 0 -1.8443,2.12893l-3.02863,12.30813a2.53429,2.53429 0 0 0 -0.07581,0.60514c0,0.00372 0,0.00742 0,0.01112a0.80288,0.80288 0 0 0 0,0.17221l1.36603,13.16085a0.82389,0.82389 0 0 0 0.81936,0.73821l35.76269,0a0.82389,0.82389 0 0 0 0.8206,-0.74646l1.22224,-12.99277c0,-0.01523 0,-0.02966 0,-0.0445a2.18661,2.18661 0 0 0 0.02801,-0.29781a2.531,2.531 0 0 0 -0.07249,-0.60515l-0.0004,0zm-2.74521,13.03934l-34.27024,0l-1.06652,-10.27723a2.25458,2.25458 0 0 0 0.39957,0.02595l35.50978,0c0.01111,0 0.02142,-0.0029 0.03213,-0.0029a2.27394,2.27394 0 0 0 0.36499,-0.02512l-0.9697,10.2793zm-25.54067,-22.15778a8.42224,8.42224 0 0 0 3.36313,-0.63232a3.68033,3.68033 0 0 0 1.17939,-0.79382a1.91267,1.91267 0 0 0 0.56147,-1.31081l0,-1.02987l0,-1.89495c0,-0.00535 0,-0.01031 0,-0.01606a1.90937,1.90937 0 0 0 -0.56147,-1.31081c-0.96683,-0.97055 -2.61628,-1.40433 -4.54252,-1.42741a8.43913,8.43913 0 0 0 -3.36396,0.63316a3.67291,3.67291 0 0 0 -1.17859,0.79425a1.9069,1.9069 0 0 0 -0.56271,1.31081c0,0.00576 0,0.01071 0,0.01606l0,2.00166l0,0.92193a1.91637,1.91637 0 0 0 0.5619,1.31081c0.9664,0.97136 2.61585,1.40516 4.54293,1.42658l0.00043,0.0008zm-3.45747,-5.67661c0,-0.00659 -0.00452,-0.05192 0.11204,-0.17796c0.33205,-0.40495 1.72565,-0.93513 3.34543,-0.91164a6.85067,6.85067 0 0 1 2.69043,0.48815a2.06344,2.06344 0 0 1 0.65498,0.42349c0.11659,0.12605 0.1104,0.17138 0.11164,0.17796l0,0l-0.00206,0c0,0.00576 0.00206,0.05602 -0.11699,0.18373c-0.34192,0.40452 -1.72729,0.9277 -3.33675,0.90628c-0.13429,0 -0.26818,-0.00289 -0.39917,-0.00864c-0.02555,0 -0.05069,-0.00413 -0.07541,-0.00536c-0.10545,-0.00536 -0.21007,-0.01195 -0.31142,-0.02103c-0.02512,-0.00246 -0.0486,-0.00615 -0.07249,-0.00864c-0.10136,-0.00988 -0.20187,-0.021 -0.29951,-0.0346c-0.0313,-0.00453 -0.06095,-0.00988 -0.09228,-0.01483c-0.08772,-0.0136 -0.17547,-0.02678 -0.25993,-0.04118c-0.04118,-0.00784 -0.07661,-0.0169 -0.11576,-0.02515c-0.07249,-0.01483 -0.14583,-0.02924 -0.21585,-0.04614c-0.06014,-0.01484 -0.11739,-0.0313 -0.1755,-0.04777c-0.04118,-0.01154 -0.08815,-0.02225 -0.13017,-0.03503c-0.08775,-0.02595 -0.16971,-0.05355 -0.24715,-0.08239c-0.00991,-0.0037 -0.02102,-0.00659 -0.0309,-0.00988c-0.08858,-0.03254 -0.17301,-0.06673 -0.25171,-0.10216a2.12152,2.12152 0 0 1 -0.6591,-0.42142c-0.11988,-0.1277 -0.11659,-0.17796 -0.11742,-0.18372l0,0l-0.00493,-0.00206zm0,2.06262c0.05808,0.02758 0.11986,0.0519 0.1796,0.07745c0.04574,0.02019 0.09104,0.04118 0.13758,0.06014c0.15119,0.06054 0.30733,0.11576 0.46963,0.16476c0.04614,0.01443 0.09517,0.02678 0.14254,0.0412c0.13142,0.03749 0.26571,0.07126 0.40329,0.10217c0.05438,0.01194 0.10751,0.02471 0.16479,0.03542c0.18042,0.03666 0.36374,0.06879 0.55365,0.09434c0.03293,0.00452 0.06673,0.00782 0.10049,0.01194q0.25088,0.03173 0.51164,0.05149l0.16726,0.01194c0.20597,0.01277 0.41524,0.02265 0.62863,0.02514c0.3201,0 0.63235,-0.01526 0.93469,-0.04121c0.14091,-0.01277 0.27231,-0.03789 0.40825,-0.05642c0.15654,-0.02061 0.31927,-0.03668 0.46963,-0.06509s0.27765,-0.06673 0.41524,-0.10052s0.27024,-0.05849 0.39588,-0.09597c0.11576,-0.03503 0.21791,-0.0824 0.32955,-0.12029c0.13266,-0.0482 0.2719,-0.09064 0.39588,-0.14543l0.01278,-0.00619l0.00246,0l0.00784,-0.00369l0.08526,-0.04119l0,0.87786c0,0.00575 0.00495,0.05149 -0.11081,0.17836c-0.33327,0.40413 -1.72565,0.93513 -3.34543,0.91124a6.84243,6.84243 0 0 1 -2.69042,-0.48858a2.08816,2.08816 0 0 1 -0.65498,-0.42266c-0.11658,-0.1277 -0.1104,-0.17261 -0.11206,-0.17836l-0.00287,-0.87786zm19.9522,3.61399a8.42513,8.42513 0 0 0 3.36312,-0.63232a3.68033,3.68033 0 0 0 1.17941,-0.79382a1.91473,1.91473 0 0 0 0.5619,-1.31081l0,-1.02987l0,-1.89495l0,0c0,-0.00535 0,-0.01031 0,-0.01606a1.90772,1.90772 0 0 0 -0.5619,-1.31081c-0.96602,-0.97055 -2.61544,-1.40433 -4.54253,-1.42741a8.43666,8.43666 0 0 0 -3.36314,0.63316a3.66879,3.66879 0 0 0 -1.17857,0.79425a1.90319,1.90319 0 0 0 -0.56273,1.31081c0,0.00576 0,0.01071 0,0.01606l0,2.00166l0,0.92193a1.90937,1.90937 0 0 0 0.5619,1.31081c0.96477,0.97136 2.61504,1.40516 4.54212,1.42658l0.0004,0.0008zm-3.45747,-5.67661c0,-0.00659 -0.00533,-0.05192 0.11123,-0.17796c0.33284,-0.40495 1.72565,-0.93513 3.34543,-0.91164a6.84778,6.84778 0 0 1 2.69042,0.48815a2.05973,2.05973 0 0 1 0.65582,0.42349c0.11658,0.12605 0.11039,0.17138 0.11123,0.17796l0,0l-0.00249,0c0,0.00576 0.00249,0.05602 -0.11699,0.18373c-0.34027,0.40289 -1.71698,0.92399 -3.31947,0.90628l-0.01772,0c-0.0379,0 -0.07415,-0.00206 -0.11121,-0.00246c-0.0964,0 -0.1928,-0.00206 -0.28837,-0.00618c-0.05645,-0.0029 -0.11081,-0.00742 -0.16479,-0.01114c-0.07414,-0.00492 -0.14828,-0.00865 -0.22038,-0.01524c-0.04903,-0.00452 -0.09517,-0.01151 -0.14336,-0.01646c-0.07661,-0.00865 -0.15365,-0.01607 -0.2278,-0.02678c-0.04408,-0.00576 -0.08529,-0.014 -0.1277,-0.02059c-0.07581,-0.01195 -0.15285,-0.02308 -0.22533,-0.03666c-0.04368,-0.00825 -0.0824,-0.01813 -0.12358,-0.02721c-0.06922,-0.0144 -0.14008,-0.028 -0.20597,-0.04408c-0.05685,-0.014 -0.11,-0.02967 -0.16479,-0.04447c-0.04654,-0.01278 -0.09597,-0.02472 -0.14088,-0.03833c-0.08239,-0.02431 -0.15943,-0.05108 -0.23481,-0.07786c-0.01443,-0.00494 -0.03049,-0.00946 -0.0453,-0.01482c-0.08818,-0.03255 -0.17304,-0.06632 -0.25171,-0.10175a2.13182,2.13182 0 0 1 -0.65911,-0.42142c-0.11824,-0.1277 -0.11575,-0.17796 -0.11575,-0.18372l-0.00249,0l-0.00413,-0.00083zm0,2.06219c0.05562,0.02638 0.11536,0.04986 0.1722,0.07498c0.04903,0.02142 0.09763,0.04407 0.1483,0.06427c0.14955,0.05974 0.3032,0.11452 0.46344,0.16479c0.04985,0.01524 0.10052,0.02841 0.15118,0.04118q0.19279,0.05439 0.39424,0.09969c0.05562,0.01234 0.11081,0.02554 0.16806,0.03666c0.17963,0.03625 0.36211,0.06839 0.55036,0.09394c0.03462,0.00452 0.07085,0.00782 0.10548,0.01234q0.24715,0.0309 0.50585,0.05109l0.17055,0.01194c0.20597,0.01277 0.41195,0.02224 0.6245,0.02512l0.0033,0c0.3201,0 0.63234,-0.01564 0.93472,-0.04119c0.10545,-0.00948 0.20391,-0.02924 0.3069,-0.04121c0.19277,-0.02388 0.38763,-0.04488 0.57178,-0.0795c0.12647,-0.02349 0.2414,-0.05891 0.36292,-0.08773c0.15036,-0.03586 0.30566,-0.06633 0.44737,-0.10917c0.10957,-0.03297 0.20597,-0.07664 0.31062,-0.11413c0.13922,-0.04943 0.28382,-0.09391 0.41195,-0.15117l0.01358,-0.00619l0,0l0.00578,-0.00249l0.08855,-0.04118l0,0.87785c0,0.00578 0.00452,0.05069 -0.11204,0.17839c-0.33245,0.4041 -1.72565,0.9351 -3.3446,0.91121a6.84367,6.84367 0 0 1 -2.69125,-0.48855a2.09845,2.09845 0 0 1 -0.65498,-0.42266c-0.11576,-0.1277 -0.10957,-0.17261 -0.11124,-0.17839l0.00246,-0.87992zm-20.40409,6.84408c0,0.00742 0,0.01401 0,0.02142l0,1.64779l0,1.9938a2.17302,2.17302 0 0 0 0.64427,1.49496c1.1275,1.13904 3.15263,1.69186 5.5172,1.71574a10.34315,10.34315 0 0 0 4.10998,-0.77074a4.40783,4.40783 0 0 0 1.40639,-0.94501a2.18332,2.18332 0 0 0 0.64512,-1.49496l0,-1.70916l0,-1.93366c0,-0.00742 0,-0.01401 0,-0.02142a2.18332,2.18332 0 0 0 -0.64512,-1.49496c-1.12749,-1.13985 -3.15263,-1.69227 -5.51637,-1.71575a10.34809,10.34809 0 0 0 -4.11122,0.77034a4.40329,4.40329 0 0 0 -1.40638,0.94541a2.18332,2.18332 0 0 0 -0.64429,1.49619l0.00043,0zm10.67518,3.66634c0,0.07166 -0.02391,0.17836 -0.19403,0.36249c-0.49434,0.57384 -2.26158,1.22309 -4.31885,1.20041a8.75716,8.75716 0 0 1 -3.43893,-0.62737a2.82636,2.82636 0 0 1 -0.88158,-0.57304c-0.16888,-0.18413 -0.19237,-0.29083 -0.1932,-0.36249l0,-1.42535c0.02597,0.01401 0.05562,0.02512 0.0824,0.04118q0.21875,0.11619 0.45645,0.21751c0.07002,0.02967 0.14294,0.05726 0.21462,0.08529q0.1965,0.07538 0.40329,0.14211c0.07372,0.02349 0.14623,0.04781 0.22285,0.07003c0.19446,0.05604 0.39508,0.10754 0.60268,0.15284c0.03379,0.007 0.06839,0.01441 0.10299,0.021c0.20886,0.04121 0.42389,0.07909 0.64346,0.1104c0.07661,0.01114 0.15448,0.0202 0.23275,0.02967q0.26652,0.03296 0.54211,0.05438c0.07621,0.00659 0.15202,0.01275 0.22946,0.0177c0.25583,0.01607 0.51577,0.02761 0.78271,0.03008l0,0c0.02964,0 0.05891,0 0.08855,-0.00207c0.16478,0 0.32957,-0.00369 0.49434,-0.01111c0.08239,-0.00372 0.16479,-0.01114 0.24718,-0.0169c0.10709,-0.00699 0.21462,-0.01194 0.31924,-0.02142c0.09022,-0.00825 0.17797,-0.0206 0.26655,-0.03047s0.18908,-0.01936 0.28135,-0.03214s0.18208,-0.02927 0.2727,-0.04451s0.1722,-0.02595 0.25583,-0.04118c0.09268,-0.0173 0.18206,-0.03872 0.27227,-0.0585c0.07787,-0.01688 0.15737,-0.03214 0.23399,-0.05024c0.09476,-0.02308 0.18581,-0.04986 0.27848,-0.0754c0.06756,-0.01853 0.13758,-0.03543 0.20351,-0.05563c0.09557,-0.02881 0.18661,-0.06137 0.27929,-0.09307c0.05851,-0.0202 0.11988,-0.03792 0.17756,-0.05934c0.09969,-0.03666 0.194,-0.07701 0.28834,-0.11657c0.04368,-0.01813 0.09022,-0.03461 0.13306,-0.05355l0.00455,-0.00206l0.0148,-0.00619c0.13884,-0.06261 0.27354,-0.12853 0.4029,-0.19855l-0.0037,1.42205zm-8.83296,-4.02968c0.49434,-0.57301 2.26159,-1.22224 4.31968,-1.20001a8.73697,8.73697 0 0 1 3.43808,0.62783a2.80371,2.80371 0 0 1 0.88074,0.57218c0.17014,0.18415 0.19323,0.29166 0.19403,0.36334l0,0.00493l0,0a0.42019,0.42019 0 0 1 -0.09721,0.24059l-0.00329,0.0037a1.29434,1.29434 0 0 1 -0.10135,0.12111c-0.50463,0.57302 -2.26571,1.21402 -4.3102,1.19137c-0.17136,0 -0.34109,-0.00372 -0.50752,-0.01071l-0.06301,-0.00455c-0.1446,-0.007 -0.28837,-0.01647 -0.42884,-0.02924c-0.0305,-0.00289 -0.05851,-0.00742 -0.08858,-0.01031c-0.13017,-0.01317 -0.2587,-0.02677 -0.38433,-0.04447c-0.02884,-0.00413 -0.05562,-0.00906 -0.0824,-0.0136c-0.12358,-0.01853 -0.24716,-0.03749 -0.36704,-0.06014c-0.02718,-0.00493 -0.05232,-0.01154 -0.07951,-0.0169c-0.11658,-0.02306 -0.23357,-0.04737 -0.34438,-0.07415c-0.0313,-0.00781 -0.06057,-0.01647 -0.09105,-0.02471c-0.10381,-0.02595 -0.20597,-0.05313 -0.30484,-0.08237c-0.03626,-0.01071 -0.06839,-0.02349 -0.10464,-0.03463c-0.08692,-0.02758 -0.17547,-0.05561 -0.25664,-0.08568c-0.04983,-0.01853 -0.09517,-0.0383 -0.14254,-0.05766c-0.06178,-0.02471 -0.12604,-0.04903 -0.18412,-0.07457s-0.09806,-0.0482 -0.14749,-0.07169s-0.09723,-0.04613 -0.14048,-0.06919c-0.06138,-0.03336 -0.11533,-0.06716 -0.16972,-0.10093c-0.02348,-0.01443 -0.05066,-0.02927 -0.07332,-0.04367a2.01359,2.01359 0 0 1 -0.34934,-0.28219a0.57013,0.57013 0 0 1 -0.20185,-0.3654l0,0l0,-0.00493c-0.00206,-0.07168 0.02223,-0.17836 0.19114,-0.36334zm28.63027,-1.13162c-1.12749,-1.13984 -3.15302,-1.69226 -5.5172,-1.71574a10.33985,10.33985 0 0 0 -4.10958,0.77033a4.38476,4.38476 0 0 0 -1.40639,0.94541a2.18332,2.18332 0 0 0 -0.64469,1.49496c0,0.01234 0,0.02349 0,0.03543l0,1.37837l0,2.25044a2.17261,2.17261 0 0 0 0.64553,1.49496c1.12626,1.13904 3.1522,1.69186 5.51513,1.71575a10.34562,10.34562 0 0 0 4.11164,-0.77074a4.40783,4.40783 0 0 0 1.40556,-0.94501a2.17672,2.17672 0 0 0 0.6443,-1.49496l0,-2.63358l0,-1.00925c0,-0.00742 0,-0.014 0,-0.02142a2.18002,2.18002 0 0 0 -0.64596,-1.49496l0.00166,0zm-1.00349,5.15921c0,0.07169 -0.02392,0.17839 -0.1928,0.36252c-0.49434,0.57384 -2.26281,1.22307 -4.32091,1.20042a8.7485,8.7485 0 0 1 -3.43727,-0.62738a2.79712,2.79712 0 0 1 -0.88158,-0.57304c-0.16972,-0.18413 -0.1932,-0.29083 -0.19403,-0.36252l0,-1.42532c0.01526,0.00822 0.03297,0.01483 0.0482,0.02306c0.15777,0.08529 0.32502,0.16479 0.49806,0.23811c0.06384,0.02637 0.12894,0.05109 0.1932,0.07621c0.14005,0.05399 0.28341,0.10464 0.4313,0.15202c0.0659,0.02102 0.13183,0.04118 0.19939,0.06261c0.20927,0.06057 0.42346,0.11658 0.64633,0.16479l0.03214,0.00659c0.2212,0.04613 0.45067,0.08239 0.68382,0.11699c0.07335,0.01031 0.1479,0.01896 0.22205,0.02801q0.27106,0.03336 0.55035,0.05562c0.07581,0.00619 0.15039,0.01237 0.227,0.0173c0.25581,0.01607 0.51576,0.02761 0.78271,0.03008q0.29495,0 0.58166,-0.01318c0.06138,-0.00289 0.12069,-0.00825 0.18126,-0.01195c0.12934,-0.00825 0.25911,-0.01483 0.386,-0.02637c0.06756,-0.00616 0.13306,-0.01565 0.19979,-0.02266c0.11658,-0.01277 0.23399,-0.02428 0.34808,-0.04118c0.07334,-0.01031 0.1442,-0.02391 0.21751,-0.03542c0.10382,-0.01649 0.20927,-0.03173 0.31143,-0.05067c0.07457,-0.01403 0.14626,-0.03173 0.21957,-0.04697c0.09557,-0.02059 0.1932,-0.04121 0.28837,-0.0622c0.07497,-0.01855 0.14706,-0.04121 0.22038,-0.05974c0.08775,-0.02389 0.17712,-0.04614 0.26241,-0.07169c0.07169,-0.02142 0.13924,-0.04614 0.20844,-0.06919c0.0824,-0.02761 0.16809,-0.05399 0.24719,-0.08241c0.06673,-0.02471 0.12976,-0.05232 0.194,-0.07826c0.07581,-0.03008 0.15368,-0.05891 0.227,-0.09105l0.00782,-0.00412l0.0099,-0.00413q0.20884,-0.0939 0.40286,-0.19813l-0.00163,1.42326zm0,-3.65932l0,0a0.33532,0.33532 0 0 1 -0.03625,0.14048l0,0a0.68342,0.68342 0 0 1 -0.05934,0.09846c-0.0033,0.00452 -0.00905,0.00988 -0.01194,0.01443a1.11637,1.11637 0 0 1 -0.09268,0.11121a1.81256,1.81256 0 0 1 -0.40865,0.3242l-0.01689,0.00908c-0.05314,0.03214 -0.11041,0.06426 -0.17056,0.0964l-0.049,0.02389c-0.05232,0.02678 -0.10548,0.05355 -0.16273,0.0799l-0.06427,0.02721c-0.05562,0.02471 -0.11124,0.04903 -0.17055,0.07249l-0.07251,0.02721c-0.06014,0.02306 -0.11985,0.04614 -0.18412,0.06839c-0.02101,0.00739 -0.04368,0.014 -0.06467,0.0214c-0.06881,0.02307 -0.13884,0.04613 -0.21133,0.06838c-0.01443,0.00453 -0.02967,0.00825 -0.0445,0.01237a9.29351,9.29351 0 0 1 -2.69206,0.36045c-0.17138,0 -0.34029,-0.00372 -0.50751,-0.01071l-0.04533,-0.00329c-0.15118,-0.00742 -0.30071,-0.0173 -0.44737,-0.0305l-0.01607,-0.00206a8.98661,8.98661 0 0 1 -1.73016,-0.32543l-0.00331,0c-0.12358,-0.03749 -0.24347,-0.07703 -0.35797,-0.11905c-0.02472,-0.00948 -0.04656,-0.01977 -0.07168,-0.02924c-0.08775,-0.03336 -0.17344,-0.06716 -0.25418,-0.10342c-0.04118,-0.01893 -0.0795,-0.03912 -0.11987,-0.05849c-0.05643,-0.02677 -0.11411,-0.05355 -0.16477,-0.08239c-0.06756,-0.03709 -0.12895,-0.07455 -0.18827,-0.11204c-0.01689,-0.01071 -0.03706,-0.02102 -0.05313,-0.03173a1.99629,1.99629 0 0 1 -0.35017,-0.28301a0.5689,0.5689 0 0 1 -0.20267,-0.36538l0,0l0,-0.00495c0,-0.07169 0.02431,-0.17837 0.19485,-0.36335c0.49434,-0.57301 2.26075,-1.22224 4.31802,-1.19998a8.73862,8.73862 0 0 1 3.43893,0.6278a2.81112,2.81112 0 0 1 0.88115,0.57218c0.16972,0.18415 0.19279,0.29166 0.1936,0.36335l-0.00203,0.00575zm-12.61505,15.30422l-15.01998,0a0.82389,0.82389 0 1 0 0,1.64778l15.01832,0a0.82389,0.82389 0 0 0 0,-1.64778l0.00166,0zm11.20495,0l-3.2173,0a0.82389,0.82389 0 1 0 0,1.64778l3.2173,0a0.82389,0.82389 0 0 0 0,-1.64778zm-6.10917,0l-1.34129,0a0.82389,0.82389 0 0 0 0,1.64778l1.34129,0a0.82389,0.82389 0 0 0 0,-1.64778z" data-name="Path 28" id="Path_28"/>
  <path stroke="null" transform="rotate(13.9334 81.8705 17.1396)" fill="#f2f2f2" d="m80.76808,9.35439l2.28856,0a0.55146,0.55146 0 0 0 0,-1.10292l-2.28856,0a0.55146,0.55146 0 0 0 0,1.10292zm14.44828,8.73873l-2.02551,-8.23855a2.19509,2.19509 0 0 0 -1.48676,-1.51872a0.55146,0.55146 0 0 0 -0.31846,1.05633a1.11037,1.11037 0 0 1 0.734,0.72626l2.02607,8.23772a0.59778,0.59778 0 0 1 0.01819,0.14201a0.61819,0.61819 0 0 1 -0.02757,0.14062a0.2931,0.2931 0 0 1 -0.08742,0.12849a0.12298,0.12298 0 0 1 -0.01544,0.01131a0.20514,0.20514 0 0 1 -0.02757,0.01793a0.65513,0.65513 0 0 1 -0.24816,0.05956l-0.00331,0l0,0l-23.7597,0c-0.0204,-0.00138 -0.0375,-0.00443 -0.05514,-0.00663a0.74089,0.74089 0 0 1 -0.13787,-0.02756c-0.00443,-0.00138 -0.0069,-0.00331 -0.01131,-0.0047a0.38051,0.38051 0 0 1 -0.05515,-0.02371a0.23906,0.23906 0 0 1 -0.03171,-0.02205a0.22527,0.22527 0 0 1 -0.01848,-0.01351a0.25643,0.25643 0 0 1 -0.03336,-0.03806l-0.00496,-0.00579a0.32316,0.32316 0 0 1 -0.02509,-0.04771l-0.00332,-0.00661a0.37885,0.37885 0 0 1 -0.01461,-0.04522c-0.00275,-0.00965 -0.00523,-0.01902 -0.00744,-0.02924c-0.00166,-0.0055 -0.00276,-0.01184 -0.00387,-0.01736c-0.00359,-0.02234 -0.00688,-0.04549 -0.00964,-0.07059a0.61488,0.61488 0 0 1 0.01875,-0.14146l2.02605,-8.23827a1.0952,1.0952 0 0 1 0.6124,-0.68051a0.55146,0.55146 0 0 0 -0.44859,-1.00779a2.17965,2.17965 0 0 0 -1.23447,1.42496l-2.02716,8.23828a1.69629,1.69629 0 0 0 -0.05074,0.40504c0,0.00249 0,0.00496 0,0.00744a0.5374,0.5374 0 0 0 0,0.11526l0.91434,8.80904a0.55146,0.55146 0 0 0 0.54843,0.49409l23.93726,0a0.55146,0.55146 0 0 0 0.54925,-0.49963l0.8181,-8.69653c0,-0.01019 0,-0.01986 0,-0.02978a1.46358,1.46358 0 0 0 0.01875,-0.19934a1.69409,1.69409 0 0 0 -0.04852,-0.40505l-0.00027,0zm-1.83746,8.7277l-22.93832,0l-0.71386,-6.87892a1.50907,1.50907 0 0 0 0.26745,0.01737l23.76797,0c0.00744,0 0.01435,-0.00195 0.02151,-0.00195a1.52203,1.52203 0 0 0 0.2443,-0.0168l-0.64905,6.8803zm-17.0953,-14.831a5.63731,5.63731 0 0 0 2.25106,-0.42324a2.46338,2.46338 0 0 0 0.78941,-0.53133a1.28022,1.28022 0 0 0 0.37582,-0.87738l0,-0.68933l0,-1.26835c0,-0.00359 0,-0.0069 0,-0.01076a1.27801,1.27801 0 0 0 -0.37582,-0.87737c-0.64713,-0.64962 -1.75117,-0.93997 -3.04047,-0.95541a5.64861,5.64861 0 0 0 -2.25163,0.42379a2.45841,2.45841 0 0 0 -0.78887,0.53162a1.27636,1.27636 0 0 0 -0.37664,0.87737c0,0.00385 0,0.00717 0,0.01076l0,1.33978l0,0.61708a1.2827,1.2827 0 0 0 0.3761,0.87737c0.64686,0.65017 1.75089,0.94053 3.04075,0.95486l0.00029,0.00054zm-2.31421,-3.79956c0,-0.00441 -0.00304,-0.03474 0.07499,-0.11911c0.22225,-0.27105 1.15504,-0.62591 2.23922,-0.6102a4.5854,4.5854 0 0 1 1.8008,0.32674a1.38113,1.38113 0 0 1 0.4384,0.28345c0.07803,0.08437 0.07389,0.11471 0.07473,0.11911l0,0l-0.00138,0c0,0.00386 0.00138,0.03749 -0.07832,0.12298c-0.22886,0.27076 -1.15613,0.62095 -2.23341,0.60661c-0.08989,0 -0.1795,-0.00194 -0.26718,-0.00579c-0.0171,0 -0.03393,-0.00277 -0.05048,-0.00359c-0.07058,-0.00358 -0.1406,-0.00799 -0.20844,-0.01407c-0.01682,-0.00165 -0.03253,-0.00412 -0.04852,-0.00579c-0.06784,-0.00661 -0.13512,-0.01405 -0.20047,-0.02315c-0.02095,-0.00303 -0.04079,-0.00662 -0.06177,-0.00993c-0.05872,-0.0091 -0.11745,-0.01792 -0.17397,-0.02757c-0.02757,-0.00525 -0.05128,-0.01131 -0.07748,-0.01683c-0.04852,-0.00993 -0.0976,-0.01957 -0.14448,-0.03088c-0.04025,-0.00993 -0.07858,-0.02095 -0.11747,-0.03198c-0.02757,-0.00772 -0.05901,-0.01489 -0.08712,-0.02344c-0.05874,-0.01737 -0.1136,-0.03584 -0.16544,-0.05515c-0.00663,-0.00247 -0.01407,-0.00441 -0.02068,-0.00661c-0.05929,-0.02177 -0.1158,-0.04467 -0.16848,-0.06837a1.42001,1.42001 0 0 1 -0.44115,-0.28208c-0.08025,-0.08548 -0.07804,-0.11912 -0.0786,-0.12297l0,0l-0.0033,-0.00138zm0,1.38059c0.03887,0.01846 0.08022,0.03474 0.12021,0.05183c0.03062,0.01352 0.06094,0.02757 0.09209,0.04026c0.1012,0.04053 0.2057,0.07748 0.31434,0.11029c0.03088,0.00966 0.06369,0.01792 0.09541,0.02758c0.08796,0.02509 0.17784,0.04769 0.26994,0.06838c0.0364,0.00799 0.07196,0.01654 0.1103,0.02371c0.12077,0.02454 0.24346,0.04604 0.37058,0.06314c0.02204,0.00303 0.04466,0.00523 0.06726,0.008q0.16793,0.02123 0.34246,0.03447l0.11195,0.00799c0.13787,0.00855 0.27794,0.01516 0.42077,0.01683c0.21426,0 0.42326,-0.01021 0.62563,-0.02758c0.09431,-0.00855 0.18227,-0.02536 0.27325,-0.03777c0.10478,-0.0138 0.2137,-0.02455 0.31434,-0.04357s0.18584,-0.04467 0.27794,-0.06729s0.18088,-0.03914 0.26498,-0.06424c0.07748,-0.02344 0.14585,-0.05515 0.22057,-0.08051c0.08879,-0.03226 0.18199,-0.06067 0.26497,-0.09735l0.00856,-0.00414l0.00165,0l0.00525,-0.00248l0.05707,-0.02757l0,0.58758c0,0.00385 0.00332,0.03446 -0.07417,0.11939c-0.22308,0.27049 -1.15504,0.62591 -2.23922,0.60992a4.57989,4.57989 0 0 1 -1.8008,-0.32703a1.39768,1.39768 0 0 1 -0.4384,-0.28289c-0.07804,-0.08548 -0.0739,-0.11554 -0.075,-0.11939l-0.00192,-0.58758zm13.35473,2.41897a5.63924,5.63924 0 0 0 2.25105,-0.42324a2.46338,2.46338 0 0 0 0.78942,-0.53133a1.2816,1.2816 0 0 0 0.37611,-0.87738l0,-0.68933l0,-1.26835l0,0c0,-0.00359 0,-0.0069 0,-0.01076a1.27691,1.27691 0 0 0 -0.37611,-0.87737c-0.64659,-0.64962 -1.7506,-0.93997 -3.04047,-0.95541a5.64696,5.64696 0 0 0 -2.25108,0.42379a2.45565,2.45565 0 0 0 -0.78885,0.53162a1.27387,1.27387 0 0 0 -0.37666,0.87737c0,0.00385 0,0.00717 0,0.01076l0,1.33978l0,0.61708a1.27801,1.27801 0 0 0 0.3761,0.87737c0.64575,0.65017 1.75034,0.94053 3.04021,0.95486l0.00027,0.00054zm-2.31421,-3.79956c0,-0.00441 -0.00358,-0.03474 0.07445,-0.11911c0.22278,-0.27105 1.15504,-0.62591 2.23922,-0.6102a4.58347,4.58347 0 0 1 1.80079,0.32674a1.37865,1.37865 0 0 1 0.43896,0.28345c0.07804,0.08437 0.0739,0.11471 0.07446,0.11911l0,0l-0.00166,0c0,0.00386 0.00166,0.03749 -0.07831,0.12298c-0.22775,0.26967 -1.14924,0.61846 -2.22184,0.60661l-0.01185,0c-0.02537,0 -0.04963,-0.00138 -0.07445,-0.00165c-0.06452,0 -0.12904,-0.00138 -0.19302,-0.00414c-0.03777,-0.00193 -0.07416,-0.00497 -0.1103,-0.00746c-0.04963,-0.0033 -0.09926,-0.00579 -0.1475,-0.0102c-0.03282,-0.00303 -0.06371,-0.00771 -0.09596,-0.01102c-0.05128,-0.00579 -0.10284,-0.01075 -0.15248,-0.01792c-0.0295,-0.00386 -0.05708,-0.00938 -0.08547,-0.01379c-0.05074,-0.008 -0.10231,-0.01545 -0.15083,-0.02454c-0.02923,-0.00552 -0.05515,-0.01213 -0.08272,-0.01821c-0.04633,-0.00964 -0.09376,-0.01875 -0.13786,-0.0295c-0.03806,-0.00937 -0.07362,-0.01986 -0.1103,-0.02977c-0.03115,-0.00855 -0.06423,-0.01655 -0.09429,-0.02565c-0.05515,-0.01628 -0.10671,-0.03419 -0.15717,-0.05212c-0.00965,-0.0033 -0.02041,-0.00633 -0.03032,-0.00991c-0.05902,-0.02179 -0.11582,-0.0444 -0.16848,-0.06812a1.4269,1.4269 0 0 1 -0.44117,-0.28207c-0.07914,-0.08548 -0.07748,-0.11911 -0.07748,-0.12297l-0.00166,0l-0.00275,-0.00056zm0,1.3803c0.03722,0.01766 0.07721,0.03337 0.11525,0.05019c0.03282,0.01434 0.06536,0.0295 0.09927,0.04302c0.10011,0.03999 0.20295,0.07665 0.3102,0.11029c0.03337,0.0102 0.06728,0.01902 0.1012,0.02757q0.12905,0.03641 0.26388,0.06673c0.03722,0.00826 0.07417,0.01709 0.11249,0.02454c0.12023,0.02427 0.24237,0.04578 0.36839,0.06288c0.02316,0.00303 0.04742,0.00523 0.07059,0.00827q0.16543,0.02068 0.33858,0.03419l0.11416,0.008c0.13786,0.00855 0.27573,0.01488 0.418,0.01681l0.00221,0c0.21424,0 0.42325,-0.01046 0.62563,-0.02757c0.07059,-0.00634 0.13649,-0.01958 0.20542,-0.02758c0.12903,-0.01599 0.25945,-0.03004 0.38271,-0.05322c0.08466,-0.01572 0.16158,-0.03943 0.24292,-0.05872c0.10064,-0.024 0.20459,-0.0444 0.29944,-0.07307c0.07335,-0.02206 0.13787,-0.0513 0.20791,-0.07639c0.09319,-0.03308 0.18997,-0.06286 0.27574,-0.10118l0.00908,-0.00414l0,0l0.00388,-0.00167l0.05927,-0.02757l0,0.58758c0,0.00387 0.00303,0.03393 -0.07499,0.1194c-0.22253,0.27048 -1.15504,0.6259 -2.23866,0.60991a4.58072,4.58072 0 0 1 -1.80136,-0.32701a1.40457,1.40457 0 0 1 -0.43839,-0.28289c-0.07749,-0.08548 -0.07334,-0.11554 -0.07446,-0.1194l0.00166,-0.58896zm-13.6572,4.58099c0,0.00497 0,0.00938 0,0.01434l0,1.10292l0,1.33453a1.45448,1.45448 0 0 0 0.43124,1.00064c0.75468,0.76239 2.11017,1.13242 3.69286,1.14841a6.92304,6.92304 0 0 0 2.75096,-0.51588a2.95032,2.95032 0 0 0 0.94135,-0.63252a1.46137,1.46137 0 0 0 0.4318,-1.00064l0,-1.144l0,-1.29427c0,-0.00497 0,-0.00938 0,-0.01435a1.46137,1.46137 0 0 0 -0.4318,-1.00063c-0.75466,-0.76294 -2.11017,-1.1327 -3.69231,-1.14841a6.92635,6.92635 0 0 0 -2.75179,0.51562a2.94728,2.94728 0 0 0 -0.94135,0.6328a1.46137,1.46137 0 0 0 -0.43125,1.00146l0.00029,0zm7.14529,2.45401c0,0.04795 -0.01601,0.11938 -0.12988,0.24262c-0.33088,0.3841 -1.51376,0.81866 -2.89076,0.80348a5.86148,5.86148 0 0 1 -2.3018,-0.41993a1.89178,1.89178 0 0 1 -0.59007,-0.38356c-0.11304,-0.12324 -0.12876,-0.19467 -0.12932,-0.24262l0,-0.95404c0.01739,0.00937 0.03722,0.01681 0.05515,0.02757q0.14641,0.07777 0.30552,0.14558c0.04687,0.01986 0.09566,0.03833 0.14365,0.05709q0.13152,0.05046 0.26994,0.09512c0.04934,0.01572 0.09788,0.032 0.14916,0.04686c0.13016,0.03751 0.26444,0.07198 0.4034,0.10231c0.02261,0.00468 0.04577,0.00965 0.06893,0.01406c0.1398,0.02757 0.28373,0.05293 0.43069,0.07389c0.05128,0.00746 0.1034,0.01352 0.15579,0.01986q0.17838,0.02206 0.36285,0.0364c0.05101,0.00441 0.10175,0.00853 0.15358,0.01185c0.17124,0.01075 0.34522,0.01848 0.5239,0.02013l0,0c0.01984,0 0.03943,0 0.05927,-0.00138c0.1103,0 0.2206,-0.00248 0.33089,-0.00743c0.05515,-0.0025 0.1103,-0.00746 0.16544,-0.01131c0.07168,-0.00468 0.14365,-0.00799 0.21368,-0.01434c0.06039,-0.00552 0.11913,-0.01378 0.17841,-0.02039s0.12655,-0.01296 0.18832,-0.02151s0.12187,-0.01959 0.18253,-0.02979s0.11526,-0.01737 0.17123,-0.02757c0.06203,-0.01158 0.12186,-0.02592 0.18224,-0.03916c0.05212,-0.0113 0.10534,-0.02151 0.15662,-0.03363c0.06343,-0.01545 0.12437,-0.03337 0.1864,-0.05046c0.04522,-0.01241 0.09209,-0.02372 0.13621,-0.03723c0.06397,-0.01929 0.12491,-0.04108 0.18695,-0.06231c0.03916,-0.01351 0.08024,-0.02538 0.11884,-0.03972c0.06673,-0.02454 0.12986,-0.05154 0.19299,-0.07803c0.02924,-0.01213 0.06039,-0.02316 0.08907,-0.03584l0.00304,-0.00138l0.00991,-0.00414c0.09293,-0.0419 0.1831,-0.08603 0.26968,-0.1329l-0.00247,0.95183zm-5.91222,-2.69721c0.33088,-0.38354 1.51376,-0.81809 2.89132,-0.80321a5.84797,5.84797 0 0 1 2.30123,0.42023a1.87662,1.87662 0 0 1 0.58952,0.38298c0.11388,0.12326 0.12933,0.19522 0.12987,0.2432l0,0.0033l0,0a0.28125,0.28125 0 0 1 -0.06506,0.16105l-0.0022,0.00247a0.86635,0.86635 0 0 1 -0.06784,0.08107c-0.33775,0.38353 -1.51651,0.81258 -2.88496,0.79742c-0.1147,0 -0.22831,-0.00249 -0.3397,-0.00717l-0.04218,-0.00304c-0.09679,-0.00468 -0.19302,-0.01103 -0.28705,-0.01957c-0.02041,-0.00194 -0.03915,-0.00497 -0.05929,-0.0069c-0.08712,-0.00882 -0.17315,-0.01793 -0.25725,-0.02977c-0.0193,-0.00276 -0.03722,-0.00606 -0.05515,-0.0091c-0.08271,-0.01241 -0.16543,-0.02509 -0.24567,-0.04026c-0.01819,-0.0033 -0.03502,-0.00773 -0.05321,-0.01131c-0.07804,-0.01543 -0.15635,-0.03171 -0.23051,-0.04963c-0.02095,-0.00523 -0.04054,-0.01102 -0.06094,-0.01654c-0.06949,-0.01737 -0.13787,-0.03556 -0.20404,-0.05513c-0.02427,-0.00717 -0.04577,-0.01572 -0.07004,-0.02318c-0.05818,-0.01846 -0.11745,-0.03722 -0.17178,-0.05735c-0.03335,-0.0124 -0.0637,-0.02563 -0.09541,-0.0386c-0.04134,-0.01654 -0.08437,-0.03282 -0.12324,-0.04991s-0.06564,-0.03226 -0.09872,-0.04799s-0.06508,-0.03088 -0.09402,-0.04631c-0.04108,-0.02233 -0.0772,-0.04495 -0.1136,-0.06756c-0.01572,-0.00965 -0.03391,-0.01958 -0.04907,-0.02923a1.34777,1.34777 0 0 1 -0.23383,-0.18887a0.38161,0.38161 0 0 1 -0.13511,-0.24458l0,0l0,-0.0033c-0.00137,-0.04798 0.01488,-0.11938 0.12794,-0.2432zm19.16328,-0.75743c-0.75468,-0.76294 -2.11044,-1.13269 -3.69286,-1.14841a6.92084,6.92084 0 0 0 -2.75069,0.51562a2.93488,2.93488 0 0 0 -0.94135,0.6328a1.46137,1.46137 0 0 0 -0.43152,1.00063c0,0.00826 0,0.01572 0,0.02371l0,0.9226l0,1.5063a1.45421,1.45421 0 0 0 0.43207,1.00064c0.75385,0.76239 2.10989,1.13242 3.69148,1.14841a6.9247,6.9247 0 0 0 2.75207,-0.51589a2.95032,2.95032 0 0 0 0.9408,-0.63252a1.45696,1.45696 0 0 0 0.43124,-1.00064l0,-1.76275l0,-0.67553c0,-0.00496 0,-0.00937 0,-0.01434a1.45917,1.45917 0 0 0 -0.43236,-1.00063l0.00111,0zm-0.67168,3.45325c0,0.04799 -0.01601,0.1194 -0.12904,0.24265c-0.33088,0.38409 -1.51458,0.81864 -2.89214,0.80348a5.85569,5.85569 0 0 1 -2.3007,-0.41993a1.87221,1.87221 0 0 1 -0.59006,-0.38355c-0.1136,-0.12325 -0.12933,-0.19466 -0.12988,-0.24265l0,-0.95402c0.01022,0.00551 0.02207,0.00993 0.03226,0.01544c0.1056,0.05708 0.21755,0.11029 0.33337,0.15936c0.04272,0.01766 0.0863,0.03421 0.12931,0.05101c0.09374,0.03614 0.1897,0.07005 0.28869,0.10176c0.04412,0.01407 0.08824,0.02757 0.13346,0.0419c0.14007,0.04054 0.28344,0.07803 0.43261,0.1103l0.02151,0.00441c0.14806,0.03088 0.30166,0.05515 0.45771,0.07831c0.04909,0.0069 0.09898,0.01269 0.14862,0.01875q0.18143,0.02234 0.36838,0.03723c0.05073,0.00414 0.10065,0.00828 0.15193,0.01157c0.17123,0.01076 0.34521,0.01849 0.5239,0.02013q0.19742,0 0.38932,-0.00882c0.04109,-0.00193 0.08079,-0.00552 0.12132,-0.00799c0.08658,-0.00552 0.17343,-0.00993 0.25837,-0.01765c0.04521,-0.00413 0.08906,-0.01047 0.13373,-0.01517c0.07803,-0.00854 0.15661,-0.01625 0.23298,-0.02756c0.0491,-0.0069 0.09652,-0.01601 0.14558,-0.02372c0.0695,-0.01104 0.14008,-0.02124 0.20846,-0.03391c0.04991,-0.00939 0.09789,-0.02124 0.14697,-0.03144c0.06398,-0.01377 0.12932,-0.02758 0.19302,-0.04163c0.05019,-0.01242 0.09844,-0.02758 0.14751,-0.03999c0.05873,-0.01599 0.11856,-0.03088 0.17564,-0.04797c0.04798,-0.01435 0.0932,-0.03089 0.13952,-0.04632c0.05515,-0.01848 0.1125,-0.03613 0.16544,-0.05515c0.04467,-0.01654 0.08686,-0.03502 0.12986,-0.05239c0.05074,-0.02013 0.10286,-0.03943 0.15193,-0.06094l0.00524,-0.00276l0.00663,-0.00277q0.13978,-0.06285 0.26964,-0.13261l-0.00108,0.95264zm0,-2.44932l0,0a0.22444,0.22444 0 0 1 -0.02427,0.09403l0,0a0.45744,0.45744 0 0 1 -0.03972,0.0659c-0.0022,0.00303 -0.00606,0.00661 -0.008,0.00966a0.74723,0.74723 0 0 1 -0.06203,0.07444a1.21321,1.21321 0 0 1 -0.27352,0.217l-0.01131,0.00607c-0.03557,0.02152 -0.07391,0.04302 -0.11416,0.06453l-0.03281,0.01599c-0.03501,0.01792 -0.0706,0.03584 -0.10892,0.05348l-0.04301,0.01821c-0.03723,0.01654 -0.07446,0.03282 -0.11416,0.04851l-0.04853,0.01822c-0.04025,0.01543 -0.08022,0.03088 -0.12323,0.04578c-0.01408,0.00495 -0.02924,0.00937 -0.04329,0.01432c-0.04607,0.01545 -0.09293,0.03088 -0.14145,0.04578c-0.00966,0.00303 -0.01986,0.00552 -0.02979,0.00828a6.22048,6.22048 0 0 1 -1.80189,0.24126c-0.11472,0 -0.22777,-0.00249 -0.3397,-0.00717l-0.03035,-0.0022c-0.10119,-0.00496 -0.20127,-0.01158 -0.29944,-0.02041l-0.01076,-0.00138a6.01506,6.01506 0 0 1 -1.15805,-0.21782l-0.00222,0c-0.08272,-0.02509 -0.16296,-0.05157 -0.2396,-0.07969c-0.01654,-0.00634 -0.03117,-0.01323 -0.04798,-0.01957c-0.05873,-0.02234 -0.11609,-0.04496 -0.17012,-0.06922c-0.02757,-0.01267 -0.05322,-0.02618 -0.08025,-0.03915c-0.03777,-0.01792 -0.07638,-0.03584 -0.11028,-0.05515c-0.04522,-0.02482 -0.08632,-0.0499 -0.12602,-0.07499c-0.01131,-0.00717 -0.0248,-0.01407 -0.03556,-0.02124a1.33619,1.33619 0 0 1 -0.23438,-0.18943a0.38079,0.38079 0 0 1 -0.13567,-0.24456l0,0l0,-0.00331c0,-0.04798 0.01628,-0.11939 0.13043,-0.2432c0.33087,-0.38354 1.5132,-0.81809 2.8902,-0.80319a5.84907,5.84907 0 0 1 2.30181,0.42021a1.88158,1.88158 0 0 1 0.58978,0.38298c0.1136,0.12326 0.12904,0.19522 0.12958,0.2432l-0.00136,0.00385zm-8.4437,10.24367l-10.05342,0a0.55146,0.55146 0 1 0 0,1.10293l10.05231,0a0.55146,0.55146 0 0 0 0,-1.10293l0.00111,0zm7.49986,0l-2.15345,0a0.55146,0.55146 0 1 0 0,1.10293l2.15345,0a0.55146,0.55146 0 0 0 0,-1.10293zm-4.08908,0l-0.89777,0a0.55146,0.55146 0 0 0 0,1.10293l0.89777,0a0.55146,0.55146 0 0 0 0,-1.10293z" data-name="Path 28" id="svg_1"/>
 </g>
</svg>